G04 #@! TF.GenerationSoftware,KiCad,Pcbnew,8.0.0*
G04 #@! TF.CreationDate,2024-03-09T17:02:06-06:00*
G04 #@! TF.ProjectId,Sonde_Programmer_Adapter,536f6e64-655f-4507-926f-6772616d6d65,rev?*
G04 #@! TF.SameCoordinates,Original*
G04 #@! TF.FileFunction,Copper,L1,Top*
G04 #@! TF.FilePolarity,Positive*
%FSLAX46Y46*%
G04 Gerber Fmt 4.6, Leading zero omitted, Abs format (unit mm)*
G04 Created by KiCad (PCBNEW 8.0.0) date 2024-03-09 17:02:06*
%MOMM*%
%LPD*%
G01*
G04 APERTURE LIST*
G04 #@! TA.AperFunction,ComponentPad*
%ADD10O,1.700000X1.700000*%
G04 #@! TD*
G04 #@! TA.AperFunction,ComponentPad*
%ADD11R,1.700000X1.700000*%
G04 #@! TD*
G04 #@! TA.AperFunction,ComponentPad*
%ADD12R,1.350000X1.350000*%
G04 #@! TD*
G04 #@! TA.AperFunction,ComponentPad*
%ADD13O,1.350000X1.350000*%
G04 #@! TD*
G04 #@! TA.AperFunction,ViaPad*
%ADD14C,0.510000*%
G04 #@! TD*
G04 #@! TA.AperFunction,ViaPad*
%ADD15C,0.600000*%
G04 #@! TD*
G04 #@! TA.AperFunction,Conductor*
%ADD16C,0.129540*%
G04 #@! TD*
G04 APERTURE END LIST*
D10*
X79781000Y-81940000D03*
X79781000Y-79400000D03*
X79781000Y-76860000D03*
X79781000Y-74320000D03*
X79781000Y-71780000D03*
D11*
X79781000Y-69240000D03*
D12*
X84519000Y-57007000D03*
D13*
X84519000Y-55007000D03*
X86519000Y-57007000D03*
X86519000Y-55007000D03*
X88519000Y-57007000D03*
X88519000Y-55007000D03*
X90519000Y-57007000D03*
X90519000Y-55007000D03*
X92519000Y-57007000D03*
X92519000Y-55007000D03*
D11*
X83820000Y-97536000D03*
D10*
X83820000Y-100076000D03*
X86360000Y-97536000D03*
X86360000Y-100076000D03*
X88900000Y-97536000D03*
X88900000Y-100076000D03*
X91440000Y-97536000D03*
X91440000Y-100076000D03*
X93980000Y-97536000D03*
X93980000Y-100076000D03*
D14*
X83693000Y-75692000D03*
D15*
X85090000Y-99060000D03*
X81915000Y-100203000D03*
X88900000Y-95631000D03*
X86360000Y-95631000D03*
X83566000Y-95631000D03*
X91567000Y-88138000D03*
X89154000Y-90297000D03*
X88646000Y-87884000D03*
X93091000Y-71374000D03*
X91440000Y-71374000D03*
X89916000Y-71374000D03*
X88646000Y-71374000D03*
X93218000Y-58801000D03*
X91567000Y-58801000D03*
X89916000Y-58801000D03*
X88646000Y-58801000D03*
D16*
X85579230Y-56067230D02*
X84519000Y-55007000D01*
X85579230Y-58020230D02*
X85579230Y-56067230D01*
X85725000Y-58166000D02*
X85579230Y-58020230D01*
X85725000Y-76200000D02*
X85725000Y-58166000D01*
X85065000Y-76860000D02*
X85725000Y-76200000D01*
X79781000Y-76860000D02*
X85065000Y-76860000D01*
X90519000Y-89821000D02*
X90519000Y-57007000D01*
X83820000Y-96520000D02*
X90519000Y-89821000D01*
X83820000Y-97536000D02*
X83820000Y-96520000D01*
X89579230Y-55946770D02*
X90519000Y-55007000D01*
X89281000Y-58000460D02*
X89579230Y-57702230D01*
X89281000Y-87593294D02*
X89281000Y-58000460D01*
X89337770Y-87650064D02*
X89281000Y-87593294D01*
X89337770Y-88589230D02*
X89337770Y-87650064D01*
X81915000Y-96012000D02*
X89337770Y-88589230D01*
X81915000Y-98171000D02*
X81915000Y-96012000D01*
X83820000Y-100076000D02*
X81915000Y-98171000D01*
X89579230Y-57702230D02*
X89579230Y-55946770D01*
X83287000Y-79400000D02*
X86519000Y-76168000D01*
X79781000Y-79400000D02*
X83287000Y-79400000D01*
X86519000Y-76168000D02*
X86519000Y-57007000D01*
X87630000Y-94488000D02*
X92519000Y-89599000D01*
X87630000Y-98806000D02*
X87630000Y-94488000D01*
X86360000Y-100076000D02*
X87630000Y-98806000D01*
X92519000Y-89599000D02*
X92519000Y-57007000D01*
G04 #@! TA.AperFunction,Conductor*
G36*
X101080450Y-51319550D02*
G01*
X101099500Y-51365540D01*
X101099500Y-101034460D01*
X101080450Y-101080450D01*
X101034460Y-101099500D01*
X94553304Y-101099500D01*
X94507314Y-101080450D01*
X94488264Y-101034460D01*
X94507314Y-100988470D01*
X94522644Y-100977100D01*
X94566450Y-100953685D01*
X94726410Y-100822410D01*
X94857685Y-100662450D01*
X94955232Y-100479954D01*
X95015300Y-100281934D01*
X95035583Y-100076000D01*
X95015300Y-99870066D01*
X94955232Y-99672046D01*
X94857685Y-99489550D01*
X94792047Y-99409570D01*
X94726410Y-99329589D01*
X94628952Y-99249609D01*
X94566450Y-99198315D01*
X94383954Y-99100768D01*
X94383953Y-99100767D01*
X94383950Y-99100766D01*
X94185934Y-99040699D01*
X93980000Y-99020417D01*
X93774065Y-99040699D01*
X93576049Y-99100766D01*
X93393551Y-99198314D01*
X93233589Y-99329589D01*
X93102314Y-99489551D01*
X93004766Y-99672049D01*
X92944699Y-99870065D01*
X92924417Y-100076000D01*
X92944699Y-100281934D01*
X93004766Y-100479950D01*
X93004767Y-100479953D01*
X93004768Y-100479954D01*
X93102315Y-100662450D01*
X93153609Y-100724952D01*
X93233589Y-100822410D01*
X93313570Y-100888047D01*
X93393550Y-100953685D01*
X93437356Y-100977100D01*
X93468935Y-101015580D01*
X93464056Y-101065120D01*
X93425576Y-101096699D01*
X93406696Y-101099500D01*
X90313540Y-101099500D01*
X90267550Y-101080450D01*
X90248500Y-101034460D01*
X90248500Y-97536000D01*
X92924417Y-97536000D01*
X92944699Y-97741934D01*
X93004766Y-97939950D01*
X93004767Y-97939953D01*
X93004768Y-97939954D01*
X93102315Y-98122450D01*
X93153609Y-98184952D01*
X93233589Y-98282410D01*
X93313570Y-98348047D01*
X93393550Y-98413685D01*
X93576046Y-98511232D01*
X93576048Y-98511232D01*
X93576049Y-98511233D01*
X93774065Y-98571300D01*
X93792529Y-98573118D01*
X93980000Y-98591583D01*
X94185934Y-98571300D01*
X94383954Y-98511232D01*
X94566450Y-98413685D01*
X94726410Y-98282410D01*
X94857685Y-98122450D01*
X94955232Y-97939954D01*
X95015300Y-97741934D01*
X95035583Y-97536000D01*
X95015300Y-97330066D01*
X94955232Y-97132046D01*
X94857685Y-96949550D01*
X94792047Y-96869570D01*
X94726410Y-96789589D01*
X94628952Y-96709609D01*
X94566450Y-96658315D01*
X94383954Y-96560768D01*
X94383953Y-96560767D01*
X94383950Y-96560766D01*
X94185934Y-96500699D01*
X93980000Y-96480417D01*
X93774065Y-96500699D01*
X93576049Y-96560766D01*
X93393551Y-96658314D01*
X93233589Y-96789589D01*
X93102314Y-96949551D01*
X93004766Y-97132049D01*
X92944699Y-97330065D01*
X92924417Y-97536000D01*
X90248500Y-97536000D01*
X90248500Y-94089081D01*
X90266690Y-94043967D01*
X93474926Y-90712338D01*
X93517356Y-90646974D01*
X93535546Y-90602086D01*
X93550589Y-90525621D01*
X93659871Y-59052175D01*
X93665748Y-59025386D01*
X93703165Y-58943457D01*
X93723647Y-58801000D01*
X93703165Y-58658543D01*
X93667480Y-58580406D01*
X93661603Y-58553165D01*
X93665765Y-57354838D01*
X93660169Y-57306491D01*
X93653079Y-57276736D01*
X93641219Y-57241483D01*
X93586634Y-57168102D01*
X93548781Y-57135774D01*
X93489679Y-57100465D01*
X93452777Y-57095045D01*
X93410044Y-57069514D01*
X93397546Y-57023894D01*
X93399322Y-57007003D01*
X93398312Y-56997394D01*
X93412450Y-56949664D01*
X93452324Y-56926437D01*
X93475366Y-56922605D01*
X93521422Y-56903715D01*
X93579840Y-56867291D01*
X93633022Y-56792888D01*
X93652232Y-56746964D01*
X93668149Y-56668375D01*
X93677272Y-54040753D01*
X93661630Y-53961397D01*
X93642580Y-53915407D01*
X93621570Y-53881971D01*
X93605955Y-53857119D01*
X93605951Y-53857115D01*
X93531365Y-53804192D01*
X93485375Y-53785142D01*
X93406736Y-53769500D01*
X93406733Y-53769500D01*
X89600040Y-53769500D01*
X89600037Y-53769500D01*
X89521397Y-53785142D01*
X89475410Y-53804191D01*
X89475408Y-53804192D01*
X89417119Y-53840817D01*
X89417115Y-53840821D01*
X89364192Y-53915407D01*
X89345142Y-53961397D01*
X89329500Y-54040036D01*
X89329500Y-54429303D01*
X89310450Y-54475293D01*
X89264460Y-54494343D01*
X89218470Y-54475293D01*
X89216126Y-54472823D01*
X89156272Y-54406349D01*
X89108050Y-54352793D01*
X89108046Y-54352790D01*
X89108045Y-54352789D01*
X88959160Y-54244618D01*
X88865888Y-54203091D01*
X88791034Y-54169764D01*
X88611019Y-54131500D01*
X88426981Y-54131500D01*
X88246966Y-54169764D01*
X88078839Y-54244618D01*
X87929954Y-54352789D01*
X87929948Y-54352795D01*
X87806805Y-54489559D01*
X87806803Y-54489561D01*
X87714788Y-54648934D01*
X87657915Y-54823969D01*
X87638678Y-55007000D01*
X87657915Y-55190030D01*
X87714788Y-55365065D01*
X87806803Y-55524438D01*
X87806805Y-55524440D01*
X87929950Y-55661207D01*
X88078839Y-55769381D01*
X88246966Y-55844236D01*
X88426981Y-55882500D01*
X88426984Y-55882500D01*
X88611016Y-55882500D01*
X88611019Y-55882500D01*
X88791034Y-55844236D01*
X88959161Y-55769381D01*
X89108050Y-55661207D01*
X89231195Y-55524440D01*
X89231201Y-55524429D01*
X89232057Y-55523252D01*
X89232521Y-55522967D01*
X89233476Y-55521907D01*
X89233789Y-55522189D01*
X89274496Y-55497234D01*
X89322902Y-55508845D01*
X89344772Y-55536580D01*
X89364192Y-55583463D01*
X89364197Y-55583473D01*
X89396375Y-55634681D01*
X89400823Y-55641759D01*
X89401337Y-55642123D01*
X89401670Y-55642654D01*
X89405225Y-55646414D01*
X89404477Y-55647120D01*
X89427822Y-55684271D01*
X89416747Y-55732803D01*
X89409691Y-55741158D01*
X89351967Y-55798882D01*
X89305977Y-55817932D01*
X89299859Y-55817644D01*
X89249125Y-55812850D01*
X89180465Y-55817947D01*
X89098793Y-55859105D01*
X89060438Y-55890838D01*
X89060437Y-55890839D01*
X89009820Y-55953019D01*
X88903656Y-56153551D01*
X88865302Y-56185283D01*
X88819722Y-56182536D01*
X88791035Y-56169764D01*
X88739204Y-56158747D01*
X88611019Y-56131500D01*
X88426981Y-56131500D01*
X88263837Y-56166178D01*
X88246966Y-56169764D01*
X88078839Y-56244618D01*
X87929954Y-56352789D01*
X87929948Y-56352795D01*
X87806805Y-56489559D01*
X87806803Y-56489561D01*
X87714788Y-56648934D01*
X87657915Y-56823969D01*
X87638678Y-57007000D01*
X87657915Y-57190030D01*
X87714788Y-57365065D01*
X87806803Y-57524438D01*
X87806805Y-57524440D01*
X87929950Y-57661207D01*
X88011064Y-57720140D01*
X88037074Y-57762583D01*
X88030317Y-57803189D01*
X87964080Y-57928303D01*
X87946043Y-57975791D01*
X87938489Y-58006781D01*
X87932651Y-58057240D01*
X87932651Y-58057246D01*
X87932651Y-58057247D01*
X87939147Y-58800999D01*
X88185560Y-87015365D01*
X88167948Y-87060441D01*
X84740784Y-90712338D01*
X80512765Y-95217604D01*
X80512762Y-95217607D01*
X80512759Y-95217612D01*
X80471534Y-95282606D01*
X80471529Y-95282614D01*
X80453919Y-95327114D01*
X80453917Y-95327121D01*
X80439500Y-95402738D01*
X80439500Y-101034460D01*
X80420450Y-101080450D01*
X80374460Y-101099500D01*
X76765540Y-101099500D01*
X76719550Y-101080450D01*
X76700500Y-101034460D01*
X76700500Y-81940000D01*
X78725417Y-81940000D01*
X78745699Y-82145934D01*
X78805766Y-82343950D01*
X78805767Y-82343953D01*
X78805768Y-82343954D01*
X78903315Y-82526450D01*
X78954609Y-82588952D01*
X79034589Y-82686410D01*
X79114570Y-82752047D01*
X79194550Y-82817685D01*
X79377046Y-82915232D01*
X79377048Y-82915232D01*
X79377049Y-82915233D01*
X79575065Y-82975300D01*
X79593529Y-82977118D01*
X79781000Y-82995583D01*
X79986934Y-82975300D01*
X80184954Y-82915232D01*
X80367450Y-82817685D01*
X80527410Y-82686410D01*
X80658685Y-82526450D01*
X80756232Y-82343954D01*
X80816300Y-82145934D01*
X80836583Y-81940000D01*
X80816300Y-81734066D01*
X80756232Y-81536046D01*
X80658685Y-81353550D01*
X80593047Y-81273570D01*
X80527410Y-81193589D01*
X80429952Y-81113609D01*
X80367450Y-81062315D01*
X80184954Y-80964768D01*
X80184953Y-80964767D01*
X80184950Y-80964766D01*
X79986934Y-80904699D01*
X79781000Y-80884417D01*
X79575065Y-80904699D01*
X79377049Y-80964766D01*
X79194551Y-81062314D01*
X79034589Y-81193589D01*
X78903314Y-81353551D01*
X78805766Y-81536049D01*
X78745699Y-81734065D01*
X78725417Y-81940000D01*
X76700500Y-81940000D01*
X76700500Y-79400000D01*
X78725417Y-79400000D01*
X78745699Y-79605934D01*
X78805766Y-79803950D01*
X78805767Y-79803953D01*
X78805768Y-79803954D01*
X78903315Y-79986450D01*
X78954609Y-80048952D01*
X79034589Y-80146410D01*
X79114570Y-80212047D01*
X79194550Y-80277685D01*
X79377046Y-80375232D01*
X79377048Y-80375232D01*
X79377049Y-80375233D01*
X79575065Y-80435300D01*
X79593529Y-80437118D01*
X79781000Y-80455583D01*
X79986934Y-80435300D01*
X80184954Y-80375232D01*
X80367450Y-80277685D01*
X80527410Y-80146410D01*
X80658685Y-79986450D01*
X80756232Y-79803954D01*
X80784299Y-79711430D01*
X80815878Y-79672950D01*
X80846538Y-79665270D01*
X83339765Y-79665270D01*
X83339766Y-79665270D01*
X83437264Y-79624885D01*
X86743885Y-76318264D01*
X86784270Y-76220766D01*
X86784270Y-76115234D01*
X86784270Y-57889485D01*
X86803320Y-57843495D01*
X86822856Y-57830068D01*
X86912039Y-57790361D01*
X86959161Y-57769381D01*
X87108050Y-57661207D01*
X87231195Y-57524440D01*
X87254199Y-57484594D01*
X87323211Y-57365065D01*
X87323211Y-57365063D01*
X87323214Y-57365059D01*
X87380085Y-57190029D01*
X87399322Y-57007000D01*
X87380085Y-56823971D01*
X87323214Y-56648941D01*
X87323212Y-56648938D01*
X87323211Y-56648934D01*
X87231196Y-56489561D01*
X87231194Y-56489559D01*
X87108050Y-56352793D01*
X87108046Y-56352790D01*
X87108045Y-56352789D01*
X86959160Y-56244618D01*
X86865888Y-56203091D01*
X86791034Y-56169764D01*
X86611019Y-56131500D01*
X86426981Y-56131500D01*
X86263837Y-56166178D01*
X86246966Y-56169764D01*
X86078840Y-56244617D01*
X85947769Y-56339846D01*
X85899365Y-56351466D01*
X85856921Y-56325456D01*
X85844500Y-56287227D01*
X85844500Y-56014466D01*
X85844499Y-56014462D01*
X85804115Y-55916967D01*
X85769648Y-55882500D01*
X85729493Y-55842345D01*
X85332513Y-55445365D01*
X85313463Y-55399375D01*
X85322177Y-55366854D01*
X85323214Y-55365059D01*
X85380085Y-55190029D01*
X85399322Y-55007000D01*
X85380085Y-54823971D01*
X85323214Y-54648941D01*
X85323212Y-54648938D01*
X85323211Y-54648934D01*
X85231196Y-54489561D01*
X85231194Y-54489559D01*
X85216125Y-54472823D01*
X85108050Y-54352793D01*
X85108046Y-54352790D01*
X85108045Y-54352789D01*
X84959160Y-54244618D01*
X84865888Y-54203091D01*
X84791034Y-54169764D01*
X84611019Y-54131500D01*
X84426981Y-54131500D01*
X84246966Y-54169764D01*
X84078839Y-54244618D01*
X83929954Y-54352789D01*
X83929948Y-54352795D01*
X83806805Y-54489559D01*
X83806803Y-54489561D01*
X83714788Y-54648934D01*
X83657915Y-54823969D01*
X83638678Y-55007000D01*
X83657915Y-55190030D01*
X83714788Y-55365065D01*
X83806803Y-55524438D01*
X83806805Y-55524440D01*
X83929950Y-55661207D01*
X84078839Y-55769381D01*
X84246966Y-55844236D01*
X84426981Y-55882500D01*
X84426984Y-55882500D01*
X84611016Y-55882500D01*
X84611019Y-55882500D01*
X84791034Y-55844236D01*
X84881703Y-55803866D01*
X84931464Y-55802564D01*
X84954146Y-55817294D01*
X85157322Y-56020470D01*
X85176372Y-56066460D01*
X85157322Y-56112450D01*
X85111332Y-56131500D01*
X83824249Y-56131500D01*
X83765771Y-56143131D01*
X83699448Y-56187448D01*
X83655131Y-56253771D01*
X83643500Y-56312248D01*
X83643500Y-57701751D01*
X83655131Y-57760228D01*
X83655132Y-57760230D01*
X83655133Y-57760231D01*
X83699448Y-57826552D01*
X83765769Y-57870867D01*
X83765771Y-57870868D01*
X83824249Y-57882500D01*
X83824252Y-57882500D01*
X85213750Y-57882500D01*
X85236230Y-57878028D01*
X85285053Y-57887739D01*
X85312710Y-57929128D01*
X85313960Y-57941818D01*
X85313960Y-58072996D01*
X85354344Y-58170494D01*
X85354345Y-58170495D01*
X85440680Y-58256829D01*
X85459730Y-58302819D01*
X85459730Y-76063181D01*
X85440680Y-76109171D01*
X84974171Y-76575680D01*
X84928181Y-76594730D01*
X80846538Y-76594730D01*
X80800548Y-76575680D01*
X80784299Y-76548570D01*
X80756233Y-76456049D01*
X80756232Y-76456048D01*
X80756232Y-76456046D01*
X80658685Y-76273550D01*
X80555021Y-76147234D01*
X80527410Y-76113589D01*
X80426994Y-76031181D01*
X80367450Y-75982315D01*
X80184954Y-75884768D01*
X80184953Y-75884767D01*
X80184950Y-75884766D01*
X79986934Y-75824699D01*
X79781000Y-75804417D01*
X79575065Y-75824699D01*
X79377049Y-75884766D01*
X79194551Y-75982314D01*
X79034589Y-76113589D01*
X78903314Y-76273551D01*
X78805766Y-76456049D01*
X78745699Y-76654065D01*
X78725417Y-76860000D01*
X78745699Y-77065934D01*
X78805766Y-77263950D01*
X78805767Y-77263953D01*
X78805768Y-77263954D01*
X78903315Y-77446450D01*
X78954609Y-77508952D01*
X79034589Y-77606410D01*
X79114570Y-77672047D01*
X79194550Y-77737685D01*
X79377046Y-77835232D01*
X79377048Y-77835232D01*
X79377049Y-77835233D01*
X79575065Y-77895300D01*
X79593529Y-77897118D01*
X79781000Y-77915583D01*
X79986934Y-77895300D01*
X80184954Y-77835232D01*
X80367450Y-77737685D01*
X80527410Y-77606410D01*
X80658685Y-77446450D01*
X80756232Y-77263954D01*
X80766453Y-77230259D01*
X80784299Y-77171430D01*
X80815878Y-77132950D01*
X80846538Y-77125270D01*
X85029561Y-77125270D01*
X85075551Y-77144320D01*
X85094601Y-77190310D01*
X85075551Y-77236300D01*
X83196171Y-79115680D01*
X83150181Y-79134730D01*
X80846538Y-79134730D01*
X80800548Y-79115680D01*
X80784299Y-79088570D01*
X80756233Y-78996049D01*
X80756232Y-78996048D01*
X80756232Y-78996046D01*
X80658685Y-78813550D01*
X80593047Y-78733570D01*
X80527410Y-78653589D01*
X80429952Y-78573609D01*
X80367450Y-78522315D01*
X80184954Y-78424768D01*
X80184953Y-78424767D01*
X80184950Y-78424766D01*
X79986934Y-78364699D01*
X79781000Y-78344417D01*
X79575065Y-78364699D01*
X79377049Y-78424766D01*
X79194551Y-78522314D01*
X79034589Y-78653589D01*
X78903314Y-78813551D01*
X78805766Y-78996049D01*
X78745699Y-79194065D01*
X78725417Y-79400000D01*
X76700500Y-79400000D01*
X76700500Y-74320000D01*
X78725417Y-74320000D01*
X78745699Y-74525934D01*
X78805766Y-74723950D01*
X78805767Y-74723953D01*
X78805768Y-74723954D01*
X78903315Y-74906450D01*
X78954609Y-74968952D01*
X79034589Y-75066410D01*
X79114570Y-75132047D01*
X79194550Y-75197685D01*
X79377046Y-75295232D01*
X79377048Y-75295232D01*
X79377049Y-75295233D01*
X79575065Y-75355300D01*
X79593529Y-75357118D01*
X79781000Y-75375583D01*
X79986934Y-75355300D01*
X80184954Y-75295232D01*
X80367450Y-75197685D01*
X80527410Y-75066410D01*
X80658685Y-74906450D01*
X80756232Y-74723954D01*
X80816300Y-74525934D01*
X80836583Y-74320000D01*
X80816300Y-74114066D01*
X80756232Y-73916046D01*
X80658685Y-73733550D01*
X80593047Y-73653570D01*
X80527410Y-73573589D01*
X80429952Y-73493609D01*
X80367450Y-73442315D01*
X80184954Y-73344768D01*
X80184953Y-73344767D01*
X80184950Y-73344766D01*
X79986934Y-73284699D01*
X79781000Y-73264417D01*
X79575065Y-73284699D01*
X79377049Y-73344766D01*
X79194551Y-73442314D01*
X79034589Y-73573589D01*
X78903314Y-73733551D01*
X78805766Y-73916049D01*
X78745699Y-74114065D01*
X78725417Y-74320000D01*
X76700500Y-74320000D01*
X76700500Y-71780000D01*
X78725417Y-71780000D01*
X78745699Y-71985934D01*
X78805766Y-72183950D01*
X78805767Y-72183953D01*
X78805768Y-72183954D01*
X78903315Y-72366450D01*
X78954609Y-72428952D01*
X79034589Y-72526410D01*
X79114570Y-72592047D01*
X79194550Y-72657685D01*
X79377046Y-72755232D01*
X79377048Y-72755232D01*
X79377049Y-72755233D01*
X79575065Y-72815300D01*
X79593529Y-72817118D01*
X79781000Y-72835583D01*
X79986934Y-72815300D01*
X80184954Y-72755232D01*
X80367450Y-72657685D01*
X80527410Y-72526410D01*
X80658685Y-72366450D01*
X80756232Y-72183954D01*
X80816300Y-71985934D01*
X80836583Y-71780000D01*
X80816300Y-71574066D01*
X80756232Y-71376046D01*
X80658685Y-71193550D01*
X80593047Y-71113570D01*
X80527410Y-71033589D01*
X80429952Y-70953609D01*
X80367450Y-70902315D01*
X80184954Y-70804768D01*
X80184953Y-70804767D01*
X80184950Y-70804766D01*
X79986934Y-70744699D01*
X79781000Y-70724417D01*
X79575065Y-70744699D01*
X79377049Y-70804766D01*
X79194551Y-70902314D01*
X79034589Y-71033589D01*
X78903314Y-71193551D01*
X78805766Y-71376049D01*
X78745699Y-71574065D01*
X78725417Y-71780000D01*
X76700500Y-71780000D01*
X76700500Y-70109751D01*
X78730500Y-70109751D01*
X78742131Y-70168228D01*
X78742132Y-70168230D01*
X78742133Y-70168231D01*
X78786448Y-70234552D01*
X78852769Y-70278867D01*
X78852771Y-70278868D01*
X78911249Y-70290500D01*
X78911252Y-70290500D01*
X80650751Y-70290500D01*
X80709228Y-70278868D01*
X80709228Y-70278867D01*
X80709231Y-70278867D01*
X80775552Y-70234552D01*
X80819867Y-70168231D01*
X80819868Y-70168228D01*
X80831500Y-70109751D01*
X80831500Y-68370248D01*
X80819868Y-68311771D01*
X80819867Y-68311769D01*
X80775552Y-68245448D01*
X80709231Y-68201133D01*
X80709230Y-68201132D01*
X80709228Y-68201131D01*
X80650751Y-68189500D01*
X80650748Y-68189500D01*
X78911252Y-68189500D01*
X78911249Y-68189500D01*
X78852771Y-68201131D01*
X78786448Y-68245448D01*
X78742131Y-68311771D01*
X78730500Y-68370248D01*
X78730500Y-70109751D01*
X76700500Y-70109751D01*
X76700500Y-51365540D01*
X76719550Y-51319550D01*
X76765540Y-51300500D01*
X101034460Y-51300500D01*
X101080450Y-51319550D01*
G37*
G04 #@! TD.AperFunction*
G04 #@! TA.AperFunction,Conductor*
G36*
X89050008Y-57783754D02*
G01*
X89061638Y-57832156D01*
X89057486Y-57846883D01*
X89018457Y-57941111D01*
X89018456Y-57941115D01*
X89015730Y-57947695D01*
X89015730Y-87646062D01*
X89056114Y-87743558D01*
X89059674Y-87748885D01*
X89057389Y-87750411D01*
X89072500Y-87786866D01*
X89072500Y-88452411D01*
X89053450Y-88498401D01*
X81690115Y-95861736D01*
X81690115Y-95861737D01*
X81649730Y-95959232D01*
X81649730Y-98223768D01*
X81690114Y-98321264D01*
X81690115Y-98321265D01*
X82878976Y-99510125D01*
X82898026Y-99556115D01*
X82890346Y-99586774D01*
X82844767Y-99672046D01*
X82844766Y-99672048D01*
X82784699Y-99870065D01*
X82764417Y-100076000D01*
X82784699Y-100281934D01*
X82844766Y-100479950D01*
X82844767Y-100479953D01*
X82844768Y-100479954D01*
X82942315Y-100662450D01*
X82993609Y-100724952D01*
X83073589Y-100822410D01*
X83153570Y-100888047D01*
X83233550Y-100953685D01*
X83277356Y-100977100D01*
X83308935Y-101015580D01*
X83304056Y-101065120D01*
X83265576Y-101096699D01*
X83246696Y-101099500D01*
X80710040Y-101099500D01*
X80664050Y-101080450D01*
X80645000Y-101034460D01*
X80645000Y-95402738D01*
X80662613Y-95358231D01*
X88392000Y-87122000D01*
X88138143Y-58055452D01*
X88145698Y-58024458D01*
X88218728Y-57886512D01*
X88257082Y-57854781D01*
X88289730Y-57853326D01*
X88426981Y-57882500D01*
X88426984Y-57882500D01*
X88611016Y-57882500D01*
X88611019Y-57882500D01*
X88791034Y-57844236D01*
X88959161Y-57769381D01*
X88959164Y-57769378D01*
X88962111Y-57767678D01*
X88962615Y-57768551D01*
X89007559Y-57757753D01*
X89050008Y-57783754D01*
G37*
G04 #@! TD.AperFunction*
G04 #@! TA.AperFunction,Conductor*
G36*
X93452723Y-53994050D02*
G01*
X93471773Y-54040040D01*
X93471773Y-54040266D01*
X93462650Y-56667662D01*
X93443440Y-56713586D01*
X93397384Y-56732476D01*
X93351460Y-56713266D01*
X93335754Y-56687536D01*
X93323214Y-56648941D01*
X93231195Y-56489560D01*
X93108050Y-56352793D01*
X93108046Y-56352790D01*
X93108045Y-56352789D01*
X92959160Y-56244618D01*
X92865888Y-56203091D01*
X92791034Y-56169764D01*
X92611019Y-56131500D01*
X92426981Y-56131500D01*
X92246966Y-56169764D01*
X92078839Y-56244618D01*
X91929954Y-56352789D01*
X91929948Y-56352795D01*
X91806805Y-56489559D01*
X91806803Y-56489561D01*
X91714788Y-56648934D01*
X91657915Y-56823969D01*
X91638678Y-57007000D01*
X91657915Y-57190030D01*
X91714788Y-57365065D01*
X91806803Y-57524438D01*
X91806805Y-57524440D01*
X91929950Y-57661207D01*
X91929953Y-57661209D01*
X91929954Y-57661210D01*
X92078839Y-57769381D01*
X92215144Y-57830068D01*
X92249410Y-57866177D01*
X92253730Y-57889485D01*
X92253730Y-89462181D01*
X92234680Y-89508171D01*
X87405115Y-94337736D01*
X87405115Y-94337737D01*
X87364730Y-94435232D01*
X87364730Y-96927579D01*
X87345680Y-96973569D01*
X87299690Y-96992619D01*
X87253700Y-96973569D01*
X87242331Y-96958240D01*
X87237687Y-96949553D01*
X87237687Y-96949552D01*
X87106410Y-96789589D01*
X86956116Y-96666248D01*
X86946450Y-96658315D01*
X86763954Y-96560768D01*
X86763953Y-96560767D01*
X86763950Y-96560766D01*
X86565934Y-96500699D01*
X86360000Y-96480417D01*
X86154065Y-96500699D01*
X85956049Y-96560766D01*
X85773551Y-96658314D01*
X85613589Y-96789589D01*
X85482314Y-96949551D01*
X85384766Y-97132049D01*
X85324699Y-97330065D01*
X85304417Y-97536000D01*
X85324699Y-97741934D01*
X85384766Y-97939950D01*
X85384767Y-97939953D01*
X85384768Y-97939954D01*
X85482315Y-98122450D01*
X85533609Y-98184952D01*
X85613589Y-98282410D01*
X85660934Y-98321264D01*
X85773550Y-98413685D01*
X85956046Y-98511232D01*
X85956048Y-98511232D01*
X85956049Y-98511233D01*
X86154065Y-98571300D01*
X86172529Y-98573118D01*
X86360000Y-98591583D01*
X86565934Y-98571300D01*
X86763954Y-98511232D01*
X86946450Y-98413685D01*
X87106410Y-98282410D01*
X87237685Y-98122450D01*
X87239939Y-98118234D01*
X87242330Y-98113761D01*
X87280809Y-98082181D01*
X87330349Y-98087060D01*
X87361929Y-98125539D01*
X87364730Y-98144420D01*
X87364730Y-98669180D01*
X87345680Y-98715170D01*
X86925873Y-99134976D01*
X86879883Y-99154026D01*
X86849224Y-99146346D01*
X86763954Y-99100768D01*
X86763953Y-99100767D01*
X86763950Y-99100766D01*
X86565934Y-99040699D01*
X86360000Y-99020417D01*
X86154065Y-99040699D01*
X85956049Y-99100766D01*
X85773551Y-99198314D01*
X85613589Y-99329589D01*
X85482314Y-99489551D01*
X85384766Y-99672049D01*
X85324699Y-99870065D01*
X85304417Y-100076000D01*
X85324699Y-100281934D01*
X85384766Y-100479950D01*
X85384767Y-100479953D01*
X85384768Y-100479954D01*
X85482315Y-100662450D01*
X85533609Y-100724952D01*
X85613589Y-100822410D01*
X85693570Y-100888047D01*
X85773550Y-100953685D01*
X85817356Y-100977100D01*
X85848935Y-101015580D01*
X85844056Y-101065120D01*
X85805576Y-101096699D01*
X85786696Y-101099500D01*
X84393304Y-101099500D01*
X84347314Y-101080450D01*
X84328264Y-101034460D01*
X84347314Y-100988470D01*
X84362644Y-100977100D01*
X84406450Y-100953685D01*
X84566410Y-100822410D01*
X84697685Y-100662450D01*
X84795232Y-100479954D01*
X84855300Y-100281934D01*
X84875583Y-100076000D01*
X84855300Y-99870066D01*
X84795232Y-99672046D01*
X84697685Y-99489550D01*
X84632047Y-99409570D01*
X84566410Y-99329589D01*
X84468952Y-99249609D01*
X84406450Y-99198315D01*
X84223954Y-99100768D01*
X84223953Y-99100767D01*
X84223950Y-99100766D01*
X84025934Y-99040699D01*
X83820000Y-99020417D01*
X83614065Y-99040699D01*
X83416048Y-99100766D01*
X83416046Y-99100767D01*
X83330774Y-99146346D01*
X83281235Y-99151225D01*
X83254125Y-99134976D01*
X82762751Y-98643602D01*
X82748994Y-98610392D01*
X82745699Y-98611048D01*
X82712397Y-98593248D01*
X82199320Y-98080171D01*
X82180270Y-98034181D01*
X82180270Y-96148819D01*
X82199320Y-96102829D01*
X89562655Y-88739494D01*
X89603039Y-88641998D01*
X89603040Y-88641996D01*
X89603040Y-88536464D01*
X89603040Y-87597299D01*
X89562655Y-87499801D01*
X89562655Y-87499800D01*
X89562653Y-87499798D01*
X89557703Y-87487846D01*
X89559035Y-87487293D01*
X89546270Y-87456475D01*
X89546270Y-58137279D01*
X89565320Y-58091289D01*
X89804115Y-57852494D01*
X89807536Y-57844235D01*
X89844500Y-57754996D01*
X89844500Y-57726772D01*
X89863550Y-57680782D01*
X89909540Y-57661732D01*
X89947770Y-57674154D01*
X90078839Y-57769381D01*
X90215144Y-57830068D01*
X90249410Y-57866177D01*
X90253730Y-57889485D01*
X90253730Y-89684181D01*
X90234680Y-89730171D01*
X83595115Y-96369736D01*
X83595115Y-96369737D01*
X83563795Y-96445350D01*
X83528596Y-96480549D01*
X83503706Y-96485500D01*
X82950249Y-96485500D01*
X82891771Y-96497131D01*
X82825448Y-96541448D01*
X82781131Y-96607771D01*
X82769500Y-96666248D01*
X82769500Y-98405751D01*
X82781131Y-98464228D01*
X82812466Y-98511123D01*
X82817245Y-98535151D01*
X82844876Y-98543534D01*
X82891769Y-98574867D01*
X82950249Y-98586500D01*
X82950252Y-98586500D01*
X84689751Y-98586500D01*
X84748228Y-98574868D01*
X84748228Y-98574867D01*
X84748231Y-98574867D01*
X84814552Y-98530552D01*
X84858867Y-98464231D01*
X84858868Y-98464228D01*
X84870500Y-98405751D01*
X84870500Y-96666248D01*
X84858868Y-96607771D01*
X84827461Y-96560768D01*
X84814552Y-96541448D01*
X84748231Y-96497133D01*
X84748230Y-96497132D01*
X84748228Y-96497131D01*
X84689751Y-96485500D01*
X84689748Y-96485500D01*
X84386669Y-96485500D01*
X84340679Y-96466450D01*
X84321629Y-96420460D01*
X84340679Y-96374470D01*
X90743883Y-89971265D01*
X90743885Y-89971263D01*
X90784269Y-89873767D01*
X90784270Y-89873765D01*
X90784270Y-89768234D01*
X90784270Y-57889485D01*
X90803320Y-57843495D01*
X90822856Y-57830068D01*
X90842325Y-57821399D01*
X90959161Y-57769381D01*
X91108050Y-57661207D01*
X91231195Y-57524440D01*
X91254199Y-57484594D01*
X91323211Y-57365065D01*
X91323211Y-57365063D01*
X91323214Y-57365059D01*
X91380085Y-57190029D01*
X91399322Y-57007000D01*
X91380085Y-56823971D01*
X91323214Y-56648941D01*
X91323212Y-56648938D01*
X91323211Y-56648934D01*
X91231196Y-56489561D01*
X91231194Y-56489559D01*
X91108050Y-56352793D01*
X91108046Y-56352790D01*
X91108045Y-56352789D01*
X90959160Y-56244618D01*
X90865888Y-56203091D01*
X90791034Y-56169764D01*
X90611019Y-56131500D01*
X90426981Y-56131500D01*
X90246966Y-56169764D01*
X90078840Y-56244617D01*
X89947769Y-56339846D01*
X89899365Y-56351466D01*
X89856921Y-56325456D01*
X89844500Y-56287227D01*
X89844500Y-56083588D01*
X89863550Y-56037598D01*
X89886683Y-56014465D01*
X90083854Y-55817293D01*
X90129843Y-55798244D01*
X90156296Y-55803866D01*
X90246966Y-55844236D01*
X90426981Y-55882500D01*
X90426984Y-55882500D01*
X90611016Y-55882500D01*
X90611019Y-55882500D01*
X90791034Y-55844236D01*
X90959161Y-55769381D01*
X91108050Y-55661207D01*
X91231195Y-55524440D01*
X91276850Y-55445364D01*
X91323211Y-55365065D01*
X91323211Y-55365063D01*
X91323214Y-55365059D01*
X91380085Y-55190029D01*
X91399322Y-55007000D01*
X91380085Y-54823971D01*
X91323214Y-54648941D01*
X91323212Y-54648938D01*
X91323211Y-54648934D01*
X91231196Y-54489561D01*
X91231194Y-54489559D01*
X91108050Y-54352793D01*
X91108046Y-54352790D01*
X91108045Y-54352789D01*
X90959160Y-54244618D01*
X90865888Y-54203091D01*
X90791034Y-54169764D01*
X90611019Y-54131500D01*
X90426981Y-54131500D01*
X90246966Y-54169764D01*
X90078839Y-54244618D01*
X89929954Y-54352789D01*
X89929948Y-54352795D01*
X89806805Y-54489559D01*
X89806803Y-54489561D01*
X89714788Y-54648934D01*
X89714786Y-54648941D01*
X89668428Y-54791618D01*
X89661897Y-54811717D01*
X89629567Y-54849569D01*
X89579941Y-54853475D01*
X89542089Y-54821145D01*
X89535000Y-54791618D01*
X89535000Y-54040040D01*
X89554050Y-53994050D01*
X89600040Y-53975000D01*
X93406733Y-53975000D01*
X93452723Y-53994050D01*
G37*
G04 #@! TD.AperFunction*
G04 #@! TA.AperFunction,Conductor*
G36*
X93453176Y-57324369D02*
G01*
X93460266Y-57354124D01*
X93345090Y-90524907D01*
X93326900Y-90569795D01*
X90043000Y-93979999D01*
X90043000Y-101034460D01*
X90023950Y-101080450D01*
X89977960Y-101099500D01*
X86933304Y-101099500D01*
X86887314Y-101080450D01*
X86868264Y-101034460D01*
X86887314Y-100988470D01*
X86902644Y-100977100D01*
X86946450Y-100953685D01*
X87106410Y-100822410D01*
X87237685Y-100662450D01*
X87335232Y-100479954D01*
X87395300Y-100281934D01*
X87415583Y-100076000D01*
X87395300Y-99870066D01*
X87335232Y-99672046D01*
X87289651Y-99586772D01*
X87284772Y-99537236D01*
X87301020Y-99510127D01*
X87854885Y-98956264D01*
X87895270Y-98858766D01*
X87895270Y-98753234D01*
X87895270Y-94624819D01*
X87914320Y-94578829D01*
X92743885Y-89749264D01*
X92784269Y-89651768D01*
X92784270Y-89651766D01*
X92784270Y-89546234D01*
X92784270Y-57889485D01*
X92803320Y-57843495D01*
X92822856Y-57830068D01*
X92842325Y-57821399D01*
X92959161Y-57769381D01*
X93108050Y-57661207D01*
X93231195Y-57524440D01*
X93323214Y-57365059D01*
X93333371Y-57333798D01*
X93365697Y-57295948D01*
X93415323Y-57292041D01*
X93453176Y-57324369D01*
G37*
G04 #@! TD.AperFunction*
M02*
