M48
; DRILL file {KiCad 8.0.0} date 2024-03-09T17:02:10-0600
; FORMAT={-:-/ absolute / metric / decimal}
; #@! TF.CreationDate,2024-03-09T17:02:10-06:00
; #@! TF.GenerationSoftware,Kicad,Pcbnew,8.0.0
; #@! TF.FileFunction,Plated,1,2,PTH
FMAT,2
METRIC
; #@! TA.AperFunction,Plated,PTH,ViaDrill
T1C0.310
; #@! TA.AperFunction,Plated,PTH,ComponentDrill
T2C0.800
; #@! TA.AperFunction,Plated,PTH,ComponentDrill
T3C1.000
%
G90
G05
T1
X81.915Y-100.203
X83.566Y-95.631
X83.693Y-75.692
X85.09Y-99.06
X86.36Y-95.631
X88.646Y-58.801
X88.646Y-71.374
X88.646Y-87.884
X88.9Y-95.631
X89.154Y-90.297
X89.916Y-58.801
X89.916Y-71.374
X91.44Y-71.374
X91.567Y-58.801
X91.567Y-88.138
X93.091Y-71.374
X93.218Y-58.801
T2
X84.519Y-55.007
X84.519Y-57.007
X86.519Y-55.007
X86.519Y-57.007
X88.519Y-55.007
X88.519Y-57.007
X90.519Y-55.007
X90.519Y-57.007
X92.519Y-55.007
X92.519Y-57.007
T3
X79.781Y-69.24
X79.781Y-71.78
X79.781Y-74.32
X79.781Y-76.86
X79.781Y-79.4
X79.781Y-81.94
X83.82Y-97.536
X83.82Y-100.076
X86.36Y-97.536
X86.36Y-100.076
X88.9Y-97.536
X88.9Y-100.076
X91.44Y-97.536
X91.44Y-100.076
X93.98Y-97.536
X93.98Y-100.076
M30
