G04 #@! TF.GenerationSoftware,KiCad,Pcbnew,8.0.0*
G04 #@! TF.CreationDate,2024-03-09T17:02:06-06:00*
G04 #@! TF.ProjectId,Sonde_Programmer_Adapter,536f6e64-655f-4507-926f-6772616d6d65,rev?*
G04 #@! TF.SameCoordinates,Original*
G04 #@! TF.FileFunction,Legend,Top*
G04 #@! TF.FilePolarity,Positive*
%FSLAX46Y46*%
G04 Gerber Fmt 4.6, Leading zero omitted, Abs format (unit mm)*
G04 Created by KiCad (PCBNEW 8.0.0) date 2024-03-09 17:02:06*
%MOMM*%
%LPD*%
G01*
G04 APERTURE LIST*
%ADD10C,0.100000*%
%ADD11C,0.150000*%
%ADD12C,0.120000*%
%ADD13O,1.700000X1.700000*%
%ADD14R,1.700000X1.700000*%
%ADD15R,1.350000X1.350000*%
%ADD16O,1.350000X1.350000*%
G04 APERTURE END LIST*
D10*
X82361693Y-81470038D02*
X82266455Y-81422419D01*
X82266455Y-81422419D02*
X82123598Y-81422419D01*
X82123598Y-81422419D02*
X81980741Y-81470038D01*
X81980741Y-81470038D02*
X81885503Y-81565276D01*
X81885503Y-81565276D02*
X81837884Y-81660514D01*
X81837884Y-81660514D02*
X81790265Y-81850990D01*
X81790265Y-81850990D02*
X81790265Y-81993847D01*
X81790265Y-81993847D02*
X81837884Y-82184323D01*
X81837884Y-82184323D02*
X81885503Y-82279561D01*
X81885503Y-82279561D02*
X81980741Y-82374800D01*
X81980741Y-82374800D02*
X82123598Y-82422419D01*
X82123598Y-82422419D02*
X82218836Y-82422419D01*
X82218836Y-82422419D02*
X82361693Y-82374800D01*
X82361693Y-82374800D02*
X82409312Y-82327180D01*
X82409312Y-82327180D02*
X82409312Y-81993847D01*
X82409312Y-81993847D02*
X82218836Y-81993847D01*
X82837884Y-82422419D02*
X82837884Y-81422419D01*
X82837884Y-81422419D02*
X83409312Y-82422419D01*
X83409312Y-82422419D02*
X83409312Y-81422419D01*
X83885503Y-82422419D02*
X83885503Y-81422419D01*
X83885503Y-81422419D02*
X84123598Y-81422419D01*
X84123598Y-81422419D02*
X84266455Y-81470038D01*
X84266455Y-81470038D02*
X84361693Y-81565276D01*
X84361693Y-81565276D02*
X84409312Y-81660514D01*
X84409312Y-81660514D02*
X84456931Y-81850990D01*
X84456931Y-81850990D02*
X84456931Y-81993847D01*
X84456931Y-81993847D02*
X84409312Y-82184323D01*
X84409312Y-82184323D02*
X84361693Y-82279561D01*
X84361693Y-82279561D02*
X84266455Y-82374800D01*
X84266455Y-82374800D02*
X84123598Y-82422419D01*
X84123598Y-82422419D02*
X83885503Y-82422419D01*
X82409312Y-79755419D02*
X82075979Y-79279228D01*
X81837884Y-79755419D02*
X81837884Y-78755419D01*
X81837884Y-78755419D02*
X82218836Y-78755419D01*
X82218836Y-78755419D02*
X82314074Y-78803038D01*
X82314074Y-78803038D02*
X82361693Y-78850657D01*
X82361693Y-78850657D02*
X82409312Y-78945895D01*
X82409312Y-78945895D02*
X82409312Y-79088752D01*
X82409312Y-79088752D02*
X82361693Y-79183990D01*
X82361693Y-79183990D02*
X82314074Y-79231609D01*
X82314074Y-79231609D02*
X82218836Y-79279228D01*
X82218836Y-79279228D02*
X81837884Y-79279228D01*
X82742646Y-78755419D02*
X83409312Y-79755419D01*
X83409312Y-78755419D02*
X82742646Y-79755419D01*
X83790265Y-79755419D02*
X83790265Y-78755419D01*
X83790265Y-78755419D02*
X84028360Y-78755419D01*
X84028360Y-78755419D02*
X84171217Y-78803038D01*
X84171217Y-78803038D02*
X84266455Y-78898276D01*
X84266455Y-78898276D02*
X84314074Y-78993514D01*
X84314074Y-78993514D02*
X84361693Y-79183990D01*
X84361693Y-79183990D02*
X84361693Y-79326847D01*
X84361693Y-79326847D02*
X84314074Y-79517323D01*
X84314074Y-79517323D02*
X84266455Y-79612561D01*
X84266455Y-79612561D02*
X84171217Y-79707800D01*
X84171217Y-79707800D02*
X84028360Y-79755419D01*
X84028360Y-79755419D02*
X83790265Y-79755419D01*
X81695027Y-76215419D02*
X82266455Y-76215419D01*
X81980741Y-77215419D02*
X81980741Y-76215419D01*
X82504551Y-76215419D02*
X83171217Y-77215419D01*
X83171217Y-76215419D02*
X82504551Y-77215419D01*
X83552170Y-77215419D02*
X83552170Y-76215419D01*
X83552170Y-76215419D02*
X83790265Y-76215419D01*
X83790265Y-76215419D02*
X83933122Y-76263038D01*
X83933122Y-76263038D02*
X84028360Y-76358276D01*
X84028360Y-76358276D02*
X84075979Y-76453514D01*
X84075979Y-76453514D02*
X84123598Y-76643990D01*
X84123598Y-76643990D02*
X84123598Y-76786847D01*
X84123598Y-76786847D02*
X84075979Y-76977323D01*
X84075979Y-76977323D02*
X84028360Y-77072561D01*
X84028360Y-77072561D02*
X83933122Y-77167800D01*
X83933122Y-77167800D02*
X83790265Y-77215419D01*
X83790265Y-77215419D02*
X83552170Y-77215419D01*
X81837884Y-74294466D02*
X82599789Y-74294466D01*
X82218836Y-74675419D02*
X82218836Y-73913514D01*
X82980741Y-73675419D02*
X83599788Y-73675419D01*
X83599788Y-73675419D02*
X83266455Y-74056371D01*
X83266455Y-74056371D02*
X83409312Y-74056371D01*
X83409312Y-74056371D02*
X83504550Y-74103990D01*
X83504550Y-74103990D02*
X83552169Y-74151609D01*
X83552169Y-74151609D02*
X83599788Y-74246847D01*
X83599788Y-74246847D02*
X83599788Y-74484942D01*
X83599788Y-74484942D02*
X83552169Y-74580180D01*
X83552169Y-74580180D02*
X83504550Y-74627800D01*
X83504550Y-74627800D02*
X83409312Y-74675419D01*
X83409312Y-74675419D02*
X83123598Y-74675419D01*
X83123598Y-74675419D02*
X83028360Y-74627800D01*
X83028360Y-74627800D02*
X82980741Y-74580180D01*
X84028360Y-74580180D02*
X84075979Y-74627800D01*
X84075979Y-74627800D02*
X84028360Y-74675419D01*
X84028360Y-74675419D02*
X83980741Y-74627800D01*
X83980741Y-74627800D02*
X84028360Y-74580180D01*
X84028360Y-74580180D02*
X84028360Y-74675419D01*
X84409312Y-73675419D02*
X85028359Y-73675419D01*
X85028359Y-73675419D02*
X84695026Y-74056371D01*
X84695026Y-74056371D02*
X84837883Y-74056371D01*
X84837883Y-74056371D02*
X84933121Y-74103990D01*
X84933121Y-74103990D02*
X84980740Y-74151609D01*
X84980740Y-74151609D02*
X85028359Y-74246847D01*
X85028359Y-74246847D02*
X85028359Y-74484942D01*
X85028359Y-74484942D02*
X84980740Y-74580180D01*
X84980740Y-74580180D02*
X84933121Y-74627800D01*
X84933121Y-74627800D02*
X84837883Y-74675419D01*
X84837883Y-74675419D02*
X84552169Y-74675419D01*
X84552169Y-74675419D02*
X84456931Y-74627800D01*
X84456931Y-74627800D02*
X84409312Y-74580180D01*
X85314074Y-73675419D02*
X85647407Y-74675419D01*
X85647407Y-74675419D02*
X85980740Y-73675419D01*
X81949027Y-71135419D02*
X82282360Y-72135419D01*
X82282360Y-72135419D02*
X82615693Y-71135419D01*
X83520455Y-72040180D02*
X83472836Y-72087800D01*
X83472836Y-72087800D02*
X83329979Y-72135419D01*
X83329979Y-72135419D02*
X83234741Y-72135419D01*
X83234741Y-72135419D02*
X83091884Y-72087800D01*
X83091884Y-72087800D02*
X82996646Y-71992561D01*
X82996646Y-71992561D02*
X82949027Y-71897323D01*
X82949027Y-71897323D02*
X82901408Y-71706847D01*
X82901408Y-71706847D02*
X82901408Y-71563990D01*
X82901408Y-71563990D02*
X82949027Y-71373514D01*
X82949027Y-71373514D02*
X82996646Y-71278276D01*
X82996646Y-71278276D02*
X83091884Y-71183038D01*
X83091884Y-71183038D02*
X83234741Y-71135419D01*
X83234741Y-71135419D02*
X83329979Y-71135419D01*
X83329979Y-71135419D02*
X83472836Y-71183038D01*
X83472836Y-71183038D02*
X83520455Y-71230657D01*
X84520455Y-72040180D02*
X84472836Y-72087800D01*
X84472836Y-72087800D02*
X84329979Y-72135419D01*
X84329979Y-72135419D02*
X84234741Y-72135419D01*
X84234741Y-72135419D02*
X84091884Y-72087800D01*
X84091884Y-72087800D02*
X83996646Y-71992561D01*
X83996646Y-71992561D02*
X83949027Y-71897323D01*
X83949027Y-71897323D02*
X83901408Y-71706847D01*
X83901408Y-71706847D02*
X83901408Y-71563990D01*
X83901408Y-71563990D02*
X83949027Y-71373514D01*
X83949027Y-71373514D02*
X83996646Y-71278276D01*
X83996646Y-71278276D02*
X84091884Y-71183038D01*
X84091884Y-71183038D02*
X84234741Y-71135419D01*
X84234741Y-71135419D02*
X84329979Y-71135419D01*
X84329979Y-71135419D02*
X84472836Y-71183038D01*
X84472836Y-71183038D02*
X84520455Y-71230657D01*
X81710884Y-69087466D02*
X82472789Y-69087466D01*
X82091836Y-69468419D02*
X82091836Y-68706514D01*
X83425169Y-68468419D02*
X82948979Y-68468419D01*
X82948979Y-68468419D02*
X82901360Y-68944609D01*
X82901360Y-68944609D02*
X82948979Y-68896990D01*
X82948979Y-68896990D02*
X83044217Y-68849371D01*
X83044217Y-68849371D02*
X83282312Y-68849371D01*
X83282312Y-68849371D02*
X83377550Y-68896990D01*
X83377550Y-68896990D02*
X83425169Y-68944609D01*
X83425169Y-68944609D02*
X83472788Y-69039847D01*
X83472788Y-69039847D02*
X83472788Y-69277942D01*
X83472788Y-69277942D02*
X83425169Y-69373180D01*
X83425169Y-69373180D02*
X83377550Y-69420800D01*
X83377550Y-69420800D02*
X83282312Y-69468419D01*
X83282312Y-69468419D02*
X83044217Y-69468419D01*
X83044217Y-69468419D02*
X82948979Y-69420800D01*
X82948979Y-69420800D02*
X82901360Y-69373180D01*
X83758503Y-68468419D02*
X84091836Y-69468419D01*
X84091836Y-69468419D02*
X84425169Y-68468419D01*
D11*
X80184666Y-66129819D02*
X80184666Y-66844104D01*
X80184666Y-66844104D02*
X80137047Y-66986961D01*
X80137047Y-66986961D02*
X80041809Y-67082200D01*
X80041809Y-67082200D02*
X79898952Y-67129819D01*
X79898952Y-67129819D02*
X79803714Y-67129819D01*
X80613238Y-66225057D02*
X80660857Y-66177438D01*
X80660857Y-66177438D02*
X80756095Y-66129819D01*
X80756095Y-66129819D02*
X80994190Y-66129819D01*
X80994190Y-66129819D02*
X81089428Y-66177438D01*
X81089428Y-66177438D02*
X81137047Y-66225057D01*
X81137047Y-66225057D02*
X81184666Y-66320295D01*
X81184666Y-66320295D02*
X81184666Y-66415533D01*
X81184666Y-66415533D02*
X81137047Y-66558390D01*
X81137047Y-66558390D02*
X80565619Y-67129819D01*
X80565619Y-67129819D02*
X81184666Y-67129819D01*
X81913819Y-56340333D02*
X82628104Y-56340333D01*
X82628104Y-56340333D02*
X82770961Y-56387952D01*
X82770961Y-56387952D02*
X82866200Y-56483190D01*
X82866200Y-56483190D02*
X82913819Y-56626047D01*
X82913819Y-56626047D02*
X82913819Y-56721285D01*
X82913819Y-55340333D02*
X82913819Y-55911761D01*
X82913819Y-55626047D02*
X81913819Y-55626047D01*
X81913819Y-55626047D02*
X82056676Y-55721285D01*
X82056676Y-55721285D02*
X82151914Y-55816523D01*
X82151914Y-55816523D02*
X82199533Y-55911761D01*
X80734819Y-98123333D02*
X81449104Y-98123333D01*
X81449104Y-98123333D02*
X81591961Y-98170952D01*
X81591961Y-98170952D02*
X81687200Y-98266190D01*
X81687200Y-98266190D02*
X81734819Y-98409047D01*
X81734819Y-98409047D02*
X81734819Y-98504285D01*
X80734819Y-97742380D02*
X80734819Y-97123333D01*
X80734819Y-97123333D02*
X81115771Y-97456666D01*
X81115771Y-97456666D02*
X81115771Y-97313809D01*
X81115771Y-97313809D02*
X81163390Y-97218571D01*
X81163390Y-97218571D02*
X81211009Y-97170952D01*
X81211009Y-97170952D02*
X81306247Y-97123333D01*
X81306247Y-97123333D02*
X81544342Y-97123333D01*
X81544342Y-97123333D02*
X81639580Y-97170952D01*
X81639580Y-97170952D02*
X81687200Y-97218571D01*
X81687200Y-97218571D02*
X81734819Y-97313809D01*
X81734819Y-97313809D02*
X81734819Y-97599523D01*
X81734819Y-97599523D02*
X81687200Y-97694761D01*
X81687200Y-97694761D02*
X81639580Y-97742380D01*
D12*
X80891000Y-67910000D02*
X80891000Y-69240000D01*
X79781000Y-67910000D02*
X80891000Y-67910000D01*
X78321000Y-82300000D02*
X78731000Y-82300000D01*
X78321000Y-81580000D02*
X78731000Y-81580000D01*
X78321000Y-79760000D02*
X78731000Y-79760000D01*
X78321000Y-79040000D02*
X78731000Y-79040000D01*
X78321000Y-77220000D02*
X78731000Y-77220000D01*
X78321000Y-76500000D02*
X78731000Y-76500000D01*
X78321000Y-74680000D02*
X78731000Y-74680000D01*
X78321000Y-73960000D02*
X78731000Y-73960000D01*
X78321000Y-72140000D02*
X78731000Y-72140000D01*
X78321000Y-71420000D02*
X78731000Y-71420000D01*
X78321000Y-69600000D02*
X78671000Y-69600000D01*
X78321000Y-68880000D02*
X78671000Y-68880000D01*
X78321000Y-67910000D02*
X78321000Y-83270000D01*
X69691000Y-83270000D02*
X78321000Y-83270000D01*
X69691000Y-80670000D02*
X78321000Y-80670000D01*
X69691000Y-78130000D02*
X78321000Y-78130000D01*
X69691000Y-75590000D02*
X78321000Y-75590000D01*
X69691000Y-73050000D02*
X78321000Y-73050000D01*
X69691000Y-70510000D02*
X78321000Y-70510000D01*
X69691000Y-70391900D02*
X78321000Y-70391900D01*
X69691000Y-70273805D02*
X78321000Y-70273805D01*
X69691000Y-70155710D02*
X78321000Y-70155710D01*
X69691000Y-70037615D02*
X78321000Y-70037615D01*
X69691000Y-69919520D02*
X78321000Y-69919520D01*
X69691000Y-69801425D02*
X78321000Y-69801425D01*
X69691000Y-69683330D02*
X78321000Y-69683330D01*
X69691000Y-69565235D02*
X78321000Y-69565235D01*
X69691000Y-69447140D02*
X78321000Y-69447140D01*
X69691000Y-69329045D02*
X78321000Y-69329045D01*
X69691000Y-69210950D02*
X78321000Y-69210950D01*
X69691000Y-69092855D02*
X78321000Y-69092855D01*
X69691000Y-68974760D02*
X78321000Y-68974760D01*
X69691000Y-68856665D02*
X78321000Y-68856665D01*
X69691000Y-68738570D02*
X78321000Y-68738570D01*
X69691000Y-68620475D02*
X78321000Y-68620475D01*
X69691000Y-68502380D02*
X78321000Y-68502380D01*
X69691000Y-68384285D02*
X78321000Y-68384285D01*
X69691000Y-68266190D02*
X78321000Y-68266190D01*
X69691000Y-68148095D02*
X78321000Y-68148095D01*
X69691000Y-68030000D02*
X78321000Y-68030000D01*
X69691000Y-67910000D02*
X78321000Y-67910000D01*
X69691000Y-67910000D02*
X69691000Y-83270000D01*
X83459000Y-53947000D02*
X93579000Y-53947000D01*
X83459000Y-56007000D02*
X83459000Y-53947000D01*
X83459000Y-58067000D02*
X83459000Y-57007000D01*
X84519000Y-58067000D02*
X83459000Y-58067000D01*
X85519000Y-56007000D02*
X83459000Y-56007000D01*
X85519000Y-58067000D02*
X85519000Y-56007000D01*
X85519000Y-58067000D02*
X93579000Y-58067000D01*
X93579000Y-58067000D02*
X93579000Y-53947000D01*
X82490000Y-96426000D02*
X83820000Y-96426000D01*
X82490000Y-97536000D02*
X82490000Y-96426000D01*
X82490000Y-101536000D02*
X95310000Y-101536000D01*
X82490000Y-110166000D02*
X82490000Y-101536000D01*
X82490000Y-110166000D02*
X95310000Y-110166000D01*
X82610000Y-110166000D02*
X82610000Y-101536000D01*
X82728095Y-110166000D02*
X82728095Y-101536000D01*
X82846190Y-110166000D02*
X82846190Y-101536000D01*
X82964285Y-110166000D02*
X82964285Y-101536000D01*
X83082380Y-110166000D02*
X83082380Y-101536000D01*
X83200475Y-110166000D02*
X83200475Y-101536000D01*
X83318570Y-110166000D02*
X83318570Y-101536000D01*
X83436665Y-110166000D02*
X83436665Y-101536000D01*
X83460000Y-99026000D02*
X83460000Y-98646000D01*
X83460000Y-101536000D02*
X83460000Y-101126000D01*
X83554760Y-110166000D02*
X83554760Y-101536000D01*
X83672855Y-110166000D02*
X83672855Y-101536000D01*
X83790950Y-110166000D02*
X83790950Y-101536000D01*
X83909045Y-110166000D02*
X83909045Y-101536000D01*
X84027140Y-110166000D02*
X84027140Y-101536000D01*
X84145235Y-110166000D02*
X84145235Y-101536000D01*
X84180000Y-99026000D02*
X84180000Y-98646000D01*
X84180000Y-101536000D02*
X84180000Y-101126000D01*
X84263330Y-110166000D02*
X84263330Y-101536000D01*
X84381425Y-110166000D02*
X84381425Y-101536000D01*
X84499520Y-110166000D02*
X84499520Y-101536000D01*
X84617615Y-110166000D02*
X84617615Y-101536000D01*
X84735710Y-110166000D02*
X84735710Y-101536000D01*
X84853805Y-110166000D02*
X84853805Y-101536000D01*
X84971900Y-110166000D02*
X84971900Y-101536000D01*
X85090000Y-110166000D02*
X85090000Y-101536000D01*
X86000000Y-99026000D02*
X86000000Y-98586000D01*
X86000000Y-101536000D02*
X86000000Y-101126000D01*
X86720000Y-99026000D02*
X86720000Y-98586000D01*
X86720000Y-101536000D02*
X86720000Y-101126000D01*
X87630000Y-110166000D02*
X87630000Y-101536000D01*
X88540000Y-99026000D02*
X88540000Y-98586000D01*
X88540000Y-101536000D02*
X88540000Y-101126000D01*
X89260000Y-99026000D02*
X89260000Y-98586000D01*
X89260000Y-101536000D02*
X89260000Y-101126000D01*
X90170000Y-110166000D02*
X90170000Y-101536000D01*
X91080000Y-99026000D02*
X91080000Y-98586000D01*
X91080000Y-101536000D02*
X91080000Y-101126000D01*
X91800000Y-99026000D02*
X91800000Y-98586000D01*
X91800000Y-101536000D02*
X91800000Y-101126000D01*
X92710000Y-110166000D02*
X92710000Y-101536000D01*
X93620000Y-99026000D02*
X93620000Y-98586000D01*
X93620000Y-101536000D02*
X93620000Y-101126000D01*
X94340000Y-99026000D02*
X94340000Y-98586000D01*
X94340000Y-101536000D02*
X94340000Y-101126000D01*
X95310000Y-110166000D02*
X95310000Y-101536000D01*
%LPC*%
D13*
X79781000Y-81940000D03*
X79781000Y-79400000D03*
X79781000Y-76860000D03*
X79781000Y-74320000D03*
X79781000Y-71780000D03*
D14*
X79781000Y-69240000D03*
D15*
X84519000Y-57007000D03*
D16*
X84519000Y-55007000D03*
X86519000Y-57007000D03*
X86519000Y-55007000D03*
X88519000Y-57007000D03*
X88519000Y-55007000D03*
X90519000Y-57007000D03*
X90519000Y-55007000D03*
X92519000Y-57007000D03*
X92519000Y-55007000D03*
D14*
X83820000Y-97536000D03*
D13*
X83820000Y-100076000D03*
X86360000Y-97536000D03*
X86360000Y-100076000D03*
X88900000Y-97536000D03*
X88900000Y-100076000D03*
X91440000Y-97536000D03*
X91440000Y-100076000D03*
X93980000Y-97536000D03*
X93980000Y-100076000D03*
%LPD*%
M02*
