G04 #@! TF.GenerationSoftware,KiCad,Pcbnew,8.0.0*
G04 #@! TF.CreationDate,2024-03-09T17:02:07-06:00*
G04 #@! TF.ProjectId,Sonde_Programmer_Adapter,536f6e64-655f-4507-926f-6772616d6d65,rev?*
G04 #@! TF.SameCoordinates,Original*
G04 #@! TF.FileFunction,Legend,Bot*
G04 #@! TF.FilePolarity,Positive*
%FSLAX46Y46*%
G04 Gerber Fmt 4.6, Leading zero omitted, Abs format (unit mm)*
G04 Created by KiCad (PCBNEW 8.0.0) date 2024-03-09 17:02:07*
%MOMM*%
%LPD*%
G01*
G04 APERTURE LIST*
G04 Aperture macros list*
%AMRoundRect*
0 Rectangle with rounded corners*
0 $1 Rounding radius*
0 $2 $3 $4 $5 $6 $7 $8 $9 X,Y pos of 4 corners*
0 Add a 4 corners polygon primitive as box body*
4,1,4,$2,$3,$4,$5,$6,$7,$8,$9,$2,$3,0*
0 Add four circle primitives for the rounded corners*
1,1,$1+$1,$2,$3*
1,1,$1+$1,$4,$5*
1,1,$1+$1,$6,$7*
1,1,$1+$1,$8,$9*
0 Add four rect primitives between the rounded corners*
20,1,$1+$1,$2,$3,$4,$5,0*
20,1,$1+$1,$4,$5,$6,$7,0*
20,1,$1+$1,$6,$7,$8,$9,0*
20,1,$1+$1,$8,$9,$2,$3,0*%
G04 Aperture macros list end*
%ADD10C,0.127000*%
%ADD11O,1.700000X1.700000*%
%ADD12R,1.700000X1.700000*%
%ADD13RoundRect,0.101600X0.635000X-0.317500X0.635000X0.317500X-0.635000X0.317500X-0.635000X-0.317500X0*%
%ADD14R,1.350000X1.350000*%
%ADD15O,1.350000X1.350000*%
G04 APERTURE END LIST*
D10*
X84150199Y-71166808D02*
X84150199Y-71602237D01*
X84150199Y-71602237D02*
X84179228Y-71689322D01*
X84179228Y-71689322D02*
X84237285Y-71747380D01*
X84237285Y-71747380D02*
X84324371Y-71776408D01*
X84324371Y-71776408D02*
X84382428Y-71776408D01*
X83859914Y-71776408D02*
X83859914Y-71166808D01*
X83859914Y-71166808D02*
X83627685Y-71166808D01*
X83627685Y-71166808D02*
X83569628Y-71195837D01*
X83569628Y-71195837D02*
X83540599Y-71224865D01*
X83540599Y-71224865D02*
X83511571Y-71282922D01*
X83511571Y-71282922D02*
X83511571Y-71370008D01*
X83511571Y-71370008D02*
X83540599Y-71428065D01*
X83540599Y-71428065D02*
X83569628Y-71457094D01*
X83569628Y-71457094D02*
X83627685Y-71486122D01*
X83627685Y-71486122D02*
X83859914Y-71486122D01*
X82930999Y-71776408D02*
X83279342Y-71776408D01*
X83105171Y-71776408D02*
X83105171Y-71166808D01*
X83105171Y-71166808D02*
X83163228Y-71253894D01*
X83163228Y-71253894D02*
X83221285Y-71311951D01*
X83221285Y-71311951D02*
X83279342Y-71340980D01*
%LPC*%
D11*
X79781000Y-81940000D03*
X79781000Y-79400000D03*
X79781000Y-76860000D03*
X79781000Y-74320000D03*
X79781000Y-71780000D03*
D12*
X79781000Y-69240000D03*
D13*
X83667600Y-72415400D03*
X83667600Y-73431400D03*
X83667600Y-74447400D03*
D14*
X84519000Y-57007000D03*
D15*
X84519000Y-55007000D03*
X86519000Y-57007000D03*
X86519000Y-55007000D03*
X88519000Y-57007000D03*
X88519000Y-55007000D03*
X90519000Y-57007000D03*
X90519000Y-55007000D03*
X92519000Y-57007000D03*
X92519000Y-55007000D03*
D12*
X83820000Y-97536000D03*
D11*
X83820000Y-100076000D03*
X86360000Y-97536000D03*
X86360000Y-100076000D03*
X88900000Y-97536000D03*
X88900000Y-100076000D03*
X91440000Y-97536000D03*
X91440000Y-100076000D03*
X93980000Y-97536000D03*
X93980000Y-100076000D03*
%LPD*%
M02*
